<svg id="visual" viewBox="0 0 900 600" width="900" height="600" xmlns="http://www.w3.org/2000/svg" xmlns:xlink="http://www.w3.org/1999/xlink" version="1.1"><g transform="translate(471.35553485502504 304.1071215041353)"><path d="M151.3 -205.6C191.7 -178.9 217.1 -128.9 225.1 -79.1C233 -29.4 223.5 20.1 205.3 63.8C187.1 107.6 160.3 145.6 124.6 171.5C89 197.4 44.5 211.2 -5.6 218.9C-55.6 226.6 -111.3 228.2 -155.5 205C-199.7 181.9 -232.5 134.1 -252.3 80.3C-272 26.6 -278.7 -33.1 -257.8 -79.7C-237 -126.3 -188.8 -159.8 -141.2 -184.2C-93.7 -208.6 -46.8 -223.8 4.3 -229.7C55.4 -235.7 110.9 -232.3 151.3 -205.6" fill="#8f9bde"></path></g></svg>